<svg version="1.1" id="Layer_1" xmlns="http://www.w3.org/2000/svg" xmlns:xlink="http://www.w3.org/1999/xlink" x="0px" y="0px"
	 width="100%" viewBox="0 0 206 206" enable-background="new 0 0 206 206" xml:space="preserve">
<path fill="#150050" opacity="1.000000" stroke="none" 
	d="
M122.000000,207.000000 
	C109.979103,207.000000 97.958214,207.000000 85.408676,206.627106 
	C78.225670,203.999100 71.425285,202.098587 64.941635,199.428848 
	C32.893452,186.232620 12.747582,162.525543 3.537487,129.262543 
	C3.111858,127.725342 1.864596,126.415649 1.000001,125.000000 
	C1.000000,111.312439 1.000000,97.624878 1.367352,83.414749 
	C2.431707,81.277573 3.376988,79.723473 3.787536,78.039032 
	C8.179533,60.019115 17.339542,44.606865 30.153658,31.481602 
	C44.383965,16.905762 61.791306,7.681320 81.632088,3.020382 
	C82.845940,2.735226 83.881493,1.691027 85.000000,0.999999 
	C97.020897,1.000000 109.041786,1.000000 121.591621,1.373319 
	C123.122047,2.181556 124.084229,2.811100 125.130859,3.022450 
	C143.328476,6.697169 159.189514,15.065035 172.851562,27.440634 
	C189.752106,42.749790 200.512512,61.687344 205.032013,84.118484 
	C205.243576,85.168533 206.324142,86.043495 207.000000,87.000000 
	C207.000000,98.020897 207.000000,109.041786 206.626648,120.591507 
	C205.833817,121.955956 205.229813,122.748131 205.021378,123.633438 
	C194.806778,167.017395 168.381973,194.402130 124.882950,205.025085 
	C123.824326,205.283600 122.956703,206.324173 122.000000,207.000000 
M64.032623,162.916824 
	C68.087791,163.013794 72.142960,163.110779 77.089401,163.398590 
	C89.346542,163.349487 101.603676,163.300385 114.753609,163.606155 
	C120.450066,163.473969 126.146530,163.341766 132.735031,163.414093 
	C134.893356,163.432281 137.185974,163.914871 139.172852,163.340240 
	C141.228500,162.745712 142.987366,161.125015 145.267960,159.258530 
	C145.826096,154.874741 146.287170,150.475815 146.968307,146.111221 
	C147.723999,141.268814 146.552032,137.228638 142.452866,134.342422 
	C138.402985,131.490891 134.172989,131.372986 129.871307,133.849930 
	C128.595016,134.584824 127.293854,135.276520 125.421059,135.760925 
	C124.431015,135.092117 123.440971,134.423325 122.124252,133.262436 
	C121.382240,133.125015 120.640236,132.987595 119.125160,132.508377 
	C117.729431,132.425644 116.333702,132.342911 114.439812,131.576385 
	C114.588776,128.251465 114.737747,124.926537 115.792740,121.713333 
	C118.752831,121.496979 121.712914,121.280632 124.841026,121.926575 
	C127.486313,126.824142 132.636368,127.624863 137.966354,123.879059 
	C151.139069,124.063835 151.902710,123.294868 151.529037,110.214951 
	C151.519531,109.882500 151.485611,109.550743 152.333725,109.169968 
	C158.217392,108.501251 159.813690,106.855629 159.912598,101.096931 
	C159.988892,96.654282 159.859970,92.207962 159.945557,87.765656 
	C160.026993,83.539276 158.239883,80.852600 153.864059,79.175346 
	C152.908295,70.062790 150.000763,61.848560 143.554108,55.010620 
	C135.430710,46.394138 125.217888,42.949604 112.878860,42.172070 
	C106.330917,42.198887 99.782982,42.225704 92.406609,42.256710 
	C91.101326,42.488678 89.804565,42.842064 88.489479,42.934326 
	C70.030952,44.229332 52.857899,60.640434 53.178238,79.961388 
	C49.436356,80.654732 47.181187,82.762466 47.124420,86.691406 
	C47.047688,92.002075 46.761463,97.349876 47.288155,102.609344 
	C47.498779,104.712624 49.326538,107.996979 50.952232,108.361412 
	C55.656601,109.416000 60.796093,110.520538 65.564819,107.323212 
	C68.616219,114.240509 73.483879,119.071594 81.459656,121.196159 
	C82.000008,121.195511 82.540352,121.194870 83.927055,121.510521 
	C86.647530,121.539299 89.368011,121.568077 92.615173,122.278137 
	C92.432770,125.599518 92.250374,128.920898 91.272255,132.136353 
	C87.878464,133.176926 84.484673,134.217514 80.318314,135.434021 
	C79.580315,135.094666 78.800148,134.824554 78.111046,134.404922 
	C73.017181,131.302887 68.325493,131.317123 64.196274,134.485840 
	C60.013924,137.695343 58.930656,142.592636 60.701149,148.412155 
	C61.407314,150.733276 61.326710,153.286514 61.691692,155.720993 
	C61.975433,157.613586 62.394749,159.485840 62.876503,161.777237 
	C63.028774,162.037766 63.250225,162.208679 64.032623,162.916824 
z"/>
<path fill="#000000" opacity="1.000000" stroke="none" 
	d="
M207.000000,86.531342 
	C206.324142,86.043495 205.243576,85.168533 205.032013,84.118484 
	C200.512512,61.687344 189.752106,42.749790 172.851562,27.440634 
	C159.189514,15.065035 143.328476,6.697169 125.130859,3.022450 
	C124.084229,2.811100 123.122047,2.181556 122.060280,1.373319 
	C150.260666,1.000000 178.521317,1.000000 207.000000,1.000000 
	C207.000000,29.353855 207.000000,57.708271 207.000000,86.531342 
z"/>
<path fill="#000000" opacity="1.000000" stroke="none" 
	d="
M122.468658,207.000000 
	C122.956703,206.324173 123.824326,205.283600 124.882950,205.025085 
	C168.381973,194.402130 194.806778,167.017395 205.021378,123.633438 
	C205.229813,122.748131 205.833817,121.955956 206.626648,121.060165 
	C207.000000,149.593140 207.000000,178.186295 207.000000,207.000000 
	C178.979492,207.000000 150.958405,207.000000 122.468658,207.000000 
z"/>
<path fill="#000000" opacity="1.000000" stroke="none" 
	d="
M84.531342,0.999999 
	C83.881493,1.691027 82.845940,2.735226 81.632088,3.020382 
	C61.791306,7.681320 44.383965,16.905762 30.153658,31.481602 
	C17.339542,44.606865 8.179533,60.019115 3.787536,78.039032 
	C3.376988,79.723473 2.431707,81.277573 1.367352,82.946091 
	C1.000000,55.738892 1.000000,28.477783 1.000000,1.000000 
	C28.687183,1.000000 56.374935,1.000000 84.531342,0.999999 
z"/>
<path fill="#000000" opacity="1.000000" stroke="none" 
	d="
M1.000001,125.468658 
	C1.864596,126.415649 3.111858,127.725342 3.537487,129.262543 
	C12.747582,162.525543 32.893452,186.232620 64.941635,199.428848 
	C71.425285,202.098587 78.225670,203.999100 84.940018,206.627106 
	C57.073982,207.000000 29.147964,207.000000 1.000000,207.000000 
	C1.000000,179.979507 1.000000,152.958420 1.000001,125.468658 
z"/>
<path fill="#DCE2E9" opacity="1.000000" stroke="none" 
	d="
M92.088486,121.596848 
	C89.368011,121.568077 86.647530,121.539299 83.411812,121.149887 
	C82.280800,120.794159 81.665031,120.799072 81.049263,120.803993 
	C73.483879,119.071594 68.616219,114.240509 65.370163,106.641434 
	C65.087982,98.326073 65.000458,90.692474 65.115616,82.764252 
	C69.297165,72.936104 76.640175,68.163445 86.839630,67.727524 
	C88.729271,72.025215 90.538292,75.914444 91.947342,79.901154 
	C89.719650,80.034210 87.884613,79.977303 86.065498,80.121422 
	C78.230606,80.742149 72.314201,86.932320 72.255318,94.498985 
	C72.194321,102.338005 78.160370,108.898590 86.285591,109.106041 
	C97.746368,109.398674 109.225380,109.389778 120.686714,109.108009 
	C128.837433,108.907623 134.831345,102.410393 134.809723,94.586334 
	C134.788040,86.737816 128.816742,80.646133 120.586784,80.099174 
	C118.603500,79.967361 116.616142,79.896896 114.750107,79.398849 
	C116.666641,75.104958 118.463722,71.210434 120.672516,67.363205 
	C131.234253,68.403122 138.199554,73.667114 142.061218,83.480240 
	C142.073105,91.251717 142.105560,98.609116 141.964691,106.280853 
	C139.475357,109.979660 137.159363,113.364128 134.463058,116.843918 
	C132.473740,117.153313 130.704803,117.020844 129.296844,117.670586 
	C127.595795,118.455582 126.200584,119.903358 124.673004,121.064285 
	C121.712914,121.280632 118.752831,121.496979 115.025238,121.514145 
	C106.867981,121.408928 99.478233,121.502884 92.088486,121.596848 
z"/>
<path fill="#E3E9EE" opacity="1.000000" stroke="none" 
	d="
M122.450928,133.754517 
	C123.440971,134.423325 124.431015,135.092117 125.935364,136.129425 
	C133.386154,140.958817 132.037628,148.376877 133.021667,155.388657 
	C132.653717,158.282150 134.205093,161.668930 129.442108,162.192169 
	C123.943535,162.535217 118.902176,162.893234 113.860817,163.251266 
	C101.603676,163.300385 89.346542,163.349487 76.518631,163.071472 
	C75.302109,162.490158 74.656349,162.235977 74.016693,161.542084 
	C73.991867,159.036133 73.960922,156.969879 74.140900,154.571075 
	C74.582863,147.196167 74.992409,140.217194 81.090881,135.258087 
	C84.484673,134.217514 87.878464,133.176926 91.965881,132.374878 
	C100.085670,132.495651 107.511818,132.377914 114.937973,132.260178 
	C116.333702,132.342911 117.729431,132.425644 119.687805,132.915558 
	C120.983940,133.466660 121.717438,133.610596 122.450928,133.754517 
z"/>
<path fill="#26468D" opacity="1.000000" stroke="none" 
	d="
M64.912941,83.058884 
	C65.000458,90.692474 65.087982,98.326073 65.155151,106.363403 
	C60.796093,110.520538 55.656601,109.416000 50.952232,108.361412 
	C49.326538,107.996979 47.498779,104.712624 47.288155,102.609344 
	C46.761463,97.349876 47.047688,92.002075 47.124420,86.691406 
	C47.181187,82.762466 49.436356,80.654732 53.996277,79.954376 
	C57.215721,79.950928 59.617123,79.954491 62.270252,80.130783 
	C63.318966,81.221970 64.115952,82.140427 64.912941,83.058884 
z"/>
<path fill="#26468D" opacity="1.000000" stroke="none" 
	d="
M142.138016,105.966515 
	C142.105560,98.609116 142.073105,91.251717 142.281830,83.266159 
	C143.345978,81.752151 144.168945,80.866287 145.442566,79.992783 
	C148.599808,79.989983 151.306381,79.974823 154.012970,79.959656 
	C158.239883,80.852600 160.026993,83.539276 159.945557,87.765656 
	C159.859970,92.207962 159.988892,96.654282 159.912598,101.096931 
	C159.813690,106.855629 158.217392,108.501251 151.559418,109.210175 
	C149.656891,109.214333 148.528671,109.178291 147.024216,109.129166 
	C145.144653,108.066223 143.641327,107.016365 142.138016,105.966515 
z"/>
<path fill="#13225A" opacity="1.000000" stroke="none" 
	d="
M153.938507,79.567505 
	C151.306381,79.974823 148.599808,79.989983 145.445709,79.562271 
	C144.886795,63.439178 131.141754,50.960938 114.030823,50.572971 
	C113.932755,47.503361 113.849358,44.880173 113.765961,42.256981 
	C125.217888,42.949604 135.430710,46.394138 143.554108,55.010620 
	C150.000763,61.848560 152.908295,70.062790 153.938507,79.567505 
z"/>
<path fill="#122259" opacity="1.000000" stroke="none" 
	d="
M62.018528,79.958054 
	C59.617123,79.954491 57.215721,79.950928 54.362087,79.891098 
	C52.857899,60.640434 70.030952,44.229332 88.489479,42.934326 
	C89.804565,42.842064 91.101326,42.488678 92.756516,42.675575 
	C93.051056,45.737648 92.995689,48.380863 92.510429,51.018253 
	C75.315002,51.116585 62.079002,63.861050 62.018528,79.958054 
z"/>
<path fill="#A5AEBF" opacity="1.000000" stroke="none" 
	d="
M80.704597,135.346054 
	C74.992409,140.217194 74.582863,147.196167 73.723633,154.577560 
	C69.898247,154.429459 66.701057,153.942307 63.212776,153.410812 
	C63.073727,155.821304 62.913765,158.594223 62.753807,161.367142 
	C62.394749,159.485840 61.975433,157.613586 61.691692,155.720993 
	C61.326710,153.286514 61.407314,150.733276 60.701149,148.412155 
	C58.930656,142.592636 60.013924,137.695343 64.196274,134.485840 
	C68.325493,131.317123 73.017181,131.302887 78.111046,134.404922 
	C78.800148,134.824554 79.580315,135.094666 80.704597,135.346054 
z"/>
<path fill="#AFBBC6" opacity="1.000000" stroke="none" 
	d="
M133.038086,154.956497 
	C132.037628,148.376877 133.386154,140.958817 126.226875,136.242981 
	C127.293854,135.276520 128.595016,134.584824 129.871307,133.849930 
	C134.172989,131.372986 138.402985,131.490891 142.452866,134.342422 
	C146.552032,137.228638 147.723999,141.268814 146.968307,146.111221 
	C146.287170,150.475815 145.826096,154.874741 144.847168,159.307678 
	C144.171707,157.260651 143.917023,155.164474 143.730225,153.627136 
	C140.051010,154.084564 136.544540,154.520538 133.038086,154.956497 
z"/>
<path fill="#22438B" opacity="1.000000" stroke="none" 
	d="
M92.940315,51.024075 
	C92.995689,48.380863 93.051056,45.737648 93.170731,42.673481 
	C99.782982,42.225704 106.330917,42.198887 113.322411,42.214523 
	C113.849358,44.880173 113.932755,47.503361 113.794922,50.888420 
	C107.949654,52.081322 102.330215,52.639828 96.697952,52.843338 
	C95.468918,52.887745 94.194069,51.663849 92.940315,51.024075 
z"/>
<path fill="#C3C9D5" opacity="1.000000" stroke="none" 
	d="
M114.688889,131.918274 
	C107.511818,132.377914 100.085670,132.495651 92.363739,132.427826 
	C92.250374,128.920898 92.432770,125.599518 92.351830,121.937492 
	C99.478233,121.502884 106.867981,121.408928 114.572220,121.458290 
	C114.737747,124.926537 114.588776,128.251465 114.688889,131.918274 
z"/>
<path fill="#B8BFCD" opacity="1.000000" stroke="none" 
	d="
M147.400452,109.142242 
	C148.528671,109.178291 149.656891,109.214333 151.124084,109.234520 
	C151.485611,109.550743 151.519531,109.882500 151.529037,110.214951 
	C151.902710,123.294868 151.139069,124.063835 137.464386,123.453163 
	C136.958008,121.956810 136.953613,120.886353 137.380310,119.761475 
	C146.855072,119.514648 146.853333,119.514572 147.233856,110.603195 
	C147.254715,110.114731 147.343369,109.629158 147.400452,109.142242 
z"/>
<path fill="#CDD7DD" opacity="1.000000" stroke="none" 
	d="
M133.021667,155.388657 
	C136.544540,154.520538 140.051010,154.084564 143.730225,153.627136 
	C143.917023,155.164474 144.171707,157.260651 144.651215,159.655014 
	C142.987366,161.125015 141.228500,162.745712 139.172852,163.340240 
	C137.185974,163.914871 134.893356,163.432281 132.105835,163.184601 
	C130.950867,162.705795 130.425095,162.456467 129.899323,162.207153 
	C134.205093,161.668930 132.653717,158.282150 133.021667,155.388657 
z"/>
<path fill="#202A61" opacity="1.000000" stroke="none" 
	d="
M136.949219,119.815895 
	C136.953613,120.886353 136.958008,121.956810 137.015137,123.427414 
	C132.636368,127.624863 127.486313,126.824142 124.757019,121.495438 
	C126.200584,119.903358 127.595795,118.455582 129.296844,117.670586 
	C130.704803,117.020844 132.473740,117.153313 134.614227,117.116257 
	C135.746887,118.134155 136.348053,118.975029 136.949219,119.815895 
z"/>
<path fill="#CDD7DD" opacity="1.000000" stroke="none" 
	d="
M62.815155,161.572189 
	C62.913765,158.594223 63.073727,155.821304 63.212776,153.410812 
	C66.701057,153.942307 69.898247,154.429459 73.512703,154.910126 
	C73.960922,156.969879 73.991867,159.036133 73.550797,161.579422 
	C69.899475,162.134293 66.720169,162.212112 63.540855,162.289948 
	C63.250225,162.208679 63.028774,162.037766 62.815155,161.572189 
z"/>
<path fill="#AFBBC6" opacity="1.000000" stroke="none" 
	d="
M129.442108,162.192169 
	C130.425095,162.456467 130.950867,162.705795 131.659821,163.082336 
	C126.146530,163.341766 120.450066,163.473969 114.307213,163.428711 
	C118.902176,162.893234 123.943535,162.535217 129.442108,162.192169 
z"/>
<path fill="#A5AEBF" opacity="1.000000" stroke="none" 
	d="
M63.786739,162.603394 
	C66.720169,162.212112 69.899475,162.134293 73.544685,162.019135 
	C74.656349,162.235977 75.302109,162.490158 76.072998,162.976044 
	C72.142960,163.110779 68.087791,163.013794 63.786739,162.603394 
z"/>
<path fill="#C3C9D5" opacity="1.000000" stroke="none" 
	d="
M122.287590,133.508484 
	C121.717438,133.610596 120.983940,133.466660 120.074341,133.086456 
	C120.640236,132.987595 121.382240,133.125015 122.287590,133.508484 
z"/>
<path fill="#C3C9D5" opacity="1.000000" stroke="none" 
	d="
M81.254456,121.000076 
	C81.665031,120.799072 82.280800,120.794159 82.988632,120.991737 
	C82.540352,121.194870 82.000008,121.195511 81.254456,121.000076 
z"/>
<path fill="#182A5E" opacity="1.000000" stroke="none" 
	d="
M114.630653,79.798218 
	C116.616142,79.896896 118.603500,79.967361 120.586784,80.099174 
	C128.816742,80.646133 134.788040,86.737816 134.809723,94.586334 
	C134.831345,102.410393 128.837433,108.907623 120.686714,109.108009 
	C109.225380,109.389778 97.746368,109.398674 86.285591,109.106041 
	C78.160370,108.898590 72.194321,102.338005 72.255318,94.498985 
	C72.314201,86.932320 78.230606,80.742149 86.065498,80.121422 
	C87.884613,79.977303 89.719650,80.034210 92.309334,80.026001 
	C100.257751,79.968330 107.444206,79.883278 114.630653,79.798218 
M118.982353,90.716949 
	C115.957405,92.107872 115.029999,94.579102 117.124603,96.975578 
	C118.069618,98.056793 120.817215,98.049110 122.583588,97.702614 
	C123.364479,97.549431 124.556793,94.751945 124.137955,94.156044 
	C123.083527,92.655838 121.219078,91.724960 118.982353,90.716949 
M88.810005,98.246696 
	C91.396820,96.307404 92.115707,93.864624 89.504181,91.719299 
	C88.441643,90.846436 85.958977,90.767563 84.660141,91.411674 
	C83.613777,91.930588 82.509186,94.896591 82.940605,95.354698 
	C84.286766,96.784149 86.349556,97.538719 88.810005,98.246696 
z"/>
<path fill="#180553" opacity="1.000000" stroke="none" 
	d="
M92.510429,51.018253 
	C94.194069,51.663849 95.468918,52.887745 96.697952,52.843338 
	C102.330215,52.639828 107.949654,52.081322 113.809586,51.334839 
	C131.141754,50.960938 144.886795,63.439178 144.995056,79.549919 
	C144.168945,80.866287 143.345978,81.752151 142.302399,82.852089 
	C138.199554,73.667114 131.234253,68.403122 120.596397,67.030998 
	C118.281288,65.541115 116.496895,63.565807 114.619156,63.472668 
	C107.164024,63.102875 99.663986,63.058136 92.217194,63.504169 
	C90.328407,63.617298 88.574753,65.986526 86.759010,67.319077 
	C76.640175,68.163445 69.297165,72.936104 65.115616,82.764252 
	C64.115952,82.140427 63.318966,81.221970 62.270252,80.130783 
	C62.079002,63.861050 75.315002,51.116585 92.510429,51.018253 
z"/>
<path fill="#C6CED7" opacity="1.000000" stroke="none" 
	d="
M86.839630,67.727524 
	C88.574753,65.986526 90.328407,63.617298 92.217194,63.504169 
	C99.663986,63.058136 107.164024,63.102875 114.619156,63.472668 
	C116.496895,63.565807 118.281288,65.541115 120.184692,66.983688 
	C118.463722,71.210434 116.666641,75.104958 114.750107,79.398857 
	C107.444206,79.883278 100.257751,79.968330 92.709312,79.928535 
	C90.538292,75.914444 88.729271,72.025215 86.839630,67.727524 
z"/>
<path fill="#1D0A57" opacity="1.000000" stroke="none" 
	d="
M137.380310,119.761475 
	C136.348053,118.975029 135.746887,118.134155 134.994553,117.020943 
	C137.159363,113.364128 139.475357,109.979660 141.964691,106.280853 
	C143.641327,107.016365 145.144653,108.066223 147.024200,109.129166 
	C147.343369,109.629158 147.254715,110.114731 147.233856,110.603195 
	C146.853333,119.514572 146.855072,119.514648 137.380310,119.761475 
z"/>
<path fill="#67E8D5" opacity="1.000000" stroke="none" 
	d="
M119.330841,90.641403 
	C121.219078,91.724960 123.083527,92.655838 124.137955,94.156044 
	C124.556793,94.751945 123.364479,97.549431 122.583588,97.702614 
	C120.817215,98.049110 118.069618,98.056793 117.124603,96.975578 
	C115.029999,94.579102 115.957405,92.107872 119.330841,90.641403 
z"/>
<path fill="#66E5D4" opacity="1.000000" stroke="none" 
	d="
M88.472260,98.400818 
	C86.349556,97.538719 84.286766,96.784149 82.940605,95.354698 
	C82.509186,94.896591 83.613777,91.930588 84.660141,91.411674 
	C85.958977,90.767563 88.441643,90.846436 89.504181,91.719299 
	C92.115707,93.864624 91.396820,96.307404 88.472260,98.400818 
z"/>
</svg>